<?xml version="1.0" standalone="no"?>
<!DOCTYPE svg PUBLIC "-//W3C//DTD SVG 20010904//EN"
 "http://www.w3.org/TR/2001/REC-SVG-20010904/DTD/svg10.dtd">
<svg version="1.0" xmlns="http://www.w3.org/2000/svg"
 width="192.000000pt" height="192.000000pt" viewBox="0 0 192.000000 192.000000"
 preserveAspectRatio="xMidYMid meet">
<metadata>
Created by potrace 1.11, written by Peter Selinger 2001-2013
</metadata>
<g transform="translate(0.000000,192.000000) scale(0.100000,-0.100000)"
fill="#000000" stroke="none">
<path d="M302 1901 c-52 -21 -104 -68 -127 -117 -21 -44 -26 -84 -11 -84 8 0
8 -2 0 -8 -11 -8 -14 -62 -3 -62 3 0 9 -12 12 -27 6 -26 57 -93 71 -93 3 0 15
-8 25 -17 20 -16 32 -20 79 -25 12 -1 22 -6 22 -11 0 -5 6 -5 13 0 6 6 19 11
27 11 31 1 72 13 87 25 36 28 91 91 87 99 -3 4 -1 8 4 8 5 0 9 6 10 13 8 98 8
128 1 133 -5 3 -9 14 -9 25 0 10 -5 19 -11 19 -5 0 -8 4 -4 9 5 10 -72 91 -87
91 -17 0 -23 2 -35 12 -22 18 -105 17 -151 -1z"/>
<path d="M900 1908 c0 -5 -4 -7 -9 -3 -5 3 -16 -2 -25 -10 -8 -9 -19 -16 -23
-16 -15 0 -63 -42 -63 -55 0 -8 -4 -14 -9 -14 -11 0 -32 -56 -24 -64 4 -3 2
-6 -3 -6 -5 0 -9 -25 -9 -55 0 -30 4 -55 8 -55 4 0 7 -6 6 -12 -4 -18 36 -80
62 -98 12 -8 28 -21 35 -28 8 -7 14 -10 14 -6 0 3 6 1 14 -5 30 -25 196 -17
196 10 0 5 5 9 12 9 16 0 64 55 84 98 9 20 18 56 19 80 2 48 -19 122 -38 134
-7 4 -8 8 -3 8 7 0 -17 24 -69 68 -8 7 -19 11 -24 7 -5 -3 -11 0 -13 6 -4 13
-138 20 -138 7z"/>
<path d="M1475 1912 c-4 -4 -10 -7 -13 -8 -31 -4 -109 -60 -104 -76 1 -4 -5
-8 -13 -8 -8 0 -14 -3 -13 -7 1 -5 -4 -21 -10 -36 -7 -16 -10 -33 -6 -38 3 -5
0 -9 -5 -9 -7 0 -10 -18 -7 -47 5 -56 24 -113 37 -113 5 0 9 -6 9 -13 0 -29
94 -88 145 -91 19 -2 37 -5 40 -8 7 -7 85 19 102 34 7 6 13 8 13 5 0 -16 63
58 83 98 28 54 28 136 2 191 -17 37 -92 110 -107 106 -6 -1 -16 2 -23 8 -16
13 -120 22 -130 12z"/>
<path d="M257 1434 c-4 -4 -28 -8 -54 -8 l-47 -1 0 -58 c-1 -32 3 -57 9 -57 7
0 7 -3 0 -8 -12 -8 -13 -101 -2 -119 4 -6 4 -14 -1 -16 -10 -7 -9 -808 1 -824
4 -6 4 -14 -1 -17 -9 -6 -9 -93 1 -102 3 -4 3 -14 -1 -23 -4 -9 -8 -54 -7
-100 0 -78 2 -84 23 -92 14 -5 22 -5 22 2 0 6 5 7 11 3 16 -9 109 -11 109 -1
0 5 5 5 11 1 16 -9 109 -11 109 -1 0 5 5 5 11 1 16 -9 133 -9 149 1 9 6 9 9
-1 16 -8 5 -9 9 -4 9 6 0 10 52 10 138 0 78 4 143 10 151 7 10 7 13 -1 9 -6
-4 -10 8 -10 33 1 21 5 39 10 39 5 0 3 7 -4 15 -9 11 -9 15 -1 15 7 0 9 5 4
13 -12 19 -12 37 -1 37 6 0 5 6 -2 15 -10 12 -10 15 0 15 9 0 10 3 1 13 -6 8
-8 17 -5 20 9 9 10 437 1 437 -4 0 -3 8 2 18 5 10 6 24 2 31 -5 7 -5 30 -1 52
4 21 5 39 1 39 -3 0 -6 22 -7 50 0 28 3 47 9 43 5 -3 5 2 0 13 -6 11 -9 58 -8
105 l1 86 -38 -1 c-21 -1 -38 3 -38 7 0 5 -6 4 -14 -2 -10 -8 -16 -9 -21 -1
-3 6 -12 7 -18 3 -17 -10 -47 -11 -47 -1 0 5 -5 6 -11 2 -16 -10 -148 -11
-152 -1 -1 5 -6 5 -10 1z"/>
<path d="M816 1432 c-3 -5 -17 -7 -31 -4 -53 10 -51 35 -49 -710 1 -381 3
-695 4 -698 1 -3 2 -7 2 -10 0 -3 15 -5 34 -5 19 0 34 4 34 8 0 5 5 5 11 1 16
-9 109 -11 109 -1 0 5 5 5 11 1 16 -9 109 -11 109 -1 0 5 6 5 13 0 16 -10 109
-6 116 6 4 5 6 86 6 180 0 95 3 171 8 171 6 0 6 5 1 13 -11 14 -10 139 0 155
4 7 1 12 -6 12 -10 0 -10 2 1 9 11 7 11 10 0 15 -8 3 -10 8 -4 11 8 4 12 67 5
85 -2 3 -1 10 0 15 5 22 3 135 -3 141 -3 3 -2 16 2 28 8 23 7 56 -2 80 -4 9
-2 16 3 16 6 0 6 9 0 25 -7 18 -6 25 3 25 8 0 7 4 -3 10 -13 9 -13 11 0 20 8
5 11 10 5 10 -6 0 -10 71 -10 194 l0 194 -118 -1 c-64 -1 -117 2 -117 6 0 5
-6 5 -12 1 -18 -11 -48 -12 -48 -2 0 5 -6 6 -12 1 -17 -10 -42 -10 -49 1 -4 4
-9 4 -13 -2z"/>
<path d="M1416 1433 c-3 -4 -29 -6 -56 -6 -41 2 -50 -1 -51 -15 -6 -121 -4
-240 5 -235 7 5 7 2 0 -8 -6 -8 -11 -23 -11 -34 0 -11 5 -26 11 -34 8 -11 8
-13 0 -8 -7 4 -14 -2 -17 -13 -3 -11 -1 -23 4 -26 6 -4 6 -11 -1 -19 -8 -9 -8
-15 0 -20 7 -4 7 -12 0 -26 -8 -13 -7 -19 0 -19 6 0 8 -5 4 -12 -10 -16 -11
-329 -1 -335 4 -3 2 -12 -5 -21 -11 -13 -11 -14 2 -7 13 8 13 7 1 -8 -11 -14
-11 -17 0 -17 11 0 11 -2 -1 -10 -8 -5 -10 -10 -4 -10 7 0 11 -11 10 -24 0
-13 -4 -22 -8 -19 -5 2 -8 0 -8 -6 0 -5 5 -11 11 -13 9 -3 9 -9 0 -25 -8 -15
-8 -24 -1 -28 8 -5 8 -11 0 -20 -6 -7 -7 -16 -2 -19 11 -7 10 -46 -2 -65 -6
-8 -5 -12 0 -8 6 3 9 -56 9 -150 0 -112 3 -158 13 -165 8 -7 12 -7 12 1 0 9 5
9 20 1 14 -8 20 -8 20 0 0 6 5 8 12 4 16 -10 68 -11 68 -1 0 4 9 3 20 -3 14
-8 20 -8 20 0 0 6 5 8 12 4 16 -10 68 -11 68 -1 0 4 9 3 20 -3 14 -8 20 -8 20
0 0 6 5 8 13 3 13 -8 117 -6 126 2 6 6 9 1384 3 1402 -2 7 -8 10 -13 7 -5 -3
-9 0 -9 6 0 6 -5 8 -12 4 -18 -11 -48 -12 -48 -2 0 5 -5 6 -12 2 -16 -10 -221
-11 -229 -1 -3 4 -9 4 -13 0z"/>
</g>
</svg>
