<?xml version="1.0" encoding="UTF-8" standalone="no"?>
<svg
   xmlns:namespace="http://www.highcharts.com/svg/namespace"
   xmlns:dc="http://purl.org/dc/elements/1.1/"
   xmlns:cc="http://creativecommons.org/ns#"
   xmlns:rdf="http://www.w3.org/1999/02/22-rdf-syntax-ns#"
   xmlns:svg="http://www.w3.org/2000/svg"
   xmlns="http://www.w3.org/2000/svg"
   xmlns:sodipodi="http://sodipodi.sourceforge.net/DTD/sodipodi-0.dtd"
   xmlns:inkscape="http://www.inkscape.org/namespaces/inkscape"
   version="1.1"
   height="700pt"
   width="700pt"
   id="svg2"
   inkscape:version="0.91 r"
   sodipodi:docname="bolivar.svg">
  <metadata
     id="metadata42">
    <rdf:RDF>
      <cc:Work
         rdf:about="">
        <dc:format>image/svg+xml</dc:format>
        <dc:type
           rdf:resource="http://purl.org/dc/dcmitype/StillImage" />
        <dc:title>Venezuela</dc:title>
      </cc:Work>
    </rdf:RDF>
  </metadata>
  <defs
     id="defs40" />
  <sodipodi:namedview
     pagecolor="#ffffff"
     bordercolor="#666666"
     borderopacity="1"
     objecttolerance="10"
     gridtolerance="10"
     guidetolerance="10"
     inkscape:pageopacity="0"
     inkscape:pageshadow="2"
     inkscape:window-width="1440"
     inkscape:window-height="848"
     id="namedview38"
     showgrid="false"
     inkscape:zoom="2.1577143"
     inkscape:cx="434.01403"
     inkscape:cy="572.25772"
     inkscape:window-x="0"
     inkscape:window-y="0"
     inkscape:window-maximized="1"
     inkscape:current-layer="svg2" />
  <desc
     id="desc4">
Map version: 1.1.2
Copyright (c) 2015 Highsoft AS, Based on data from Natural Earth
</desc>
  <title
     id="title6">Venezuela</title>
  <g
     id="admin1">
    <g
       id="VE">
      <namespace:desc>
        <namespace:name>Venezuela</namespace:name>
        <namespace:labelrank>3</namespace:labelrank>
        <namespace:country-abbrev>Ven.</namespace:country-abbrev>
        <namespace:subregion>South America</namespace:subregion>
        <namespace:region-wb>Latin America &amp; Caribbean</namespace:region-wb>
        <namespace:iso-a3>VEN</namespace:iso-a3>
        <namespace:iso-a2>VE</namespace:iso-a2>
        <namespace:woe-id>23424982</namespace:woe-id>
        <namespace:continent>South America</namespace:continent>
        <namespace:hc-key>ve</namespace:hc-key>
        <namespace:hc-a2>VE</namespace:hc-a2>
      </namespace:desc>
    </g>
    <path
       fill="#CEE3F5"
       stroke="#6E6E6E"
       stroke-width="0.4"
       id="VE.BO"
       d="M321.8,295.8 L320.8,293.1 L323.2,284.1 L325.9,281.3 L325.3,276.3 L326.7,273.1 L323.8,265.3 L328.7,260.5 L332.0,259.8 L339.0,255.2 L349.2,251.0 L357.2,238.5 L362.8,234.9 L368.8,235.2 L373.1,233.0 L383.0,233.2 L388.4,229.1 L392.9,224.0 L398.0,221.6 L403.4,221.6 L407.0,223.3 L413.0,223.1 L415.6,222.8 L426.1,224.8 L431.7,228.0 L438.9,233.7 L440.9,233.4 L451.1,227.7 L456.2,227.6 L458.3,224.0 L454.9,221.3 L456.0,216.1 L464.9,215.3 L468.4,211.6 L471.1,212.0 L475.9,217.0 L485.1,216.9 L489.4,214.1 L491.3,209.8 L499.4,207.2 L509.3,207.7 L513.2,204.1 L517.6,204.0 L520.6,201.0 L525.6,198.8 L535.8,198.8 L540.9,200.6 L547.1,195.0 L550.8,194.6 L551.2,194.4 L555.3,191.3 L570.2,197.2 L573.6,198.0 L605.4,198.8 L605.3,204.1 L606.9,207.6 L618.3,219.9 L622.2,222.8 L626.2,221.8 L637.4,216.3 L641.9,217.2 L649.5,225.6 L659.6,218.5 L662.7,217.0 L676.8,216.5 L671.4,221.7 L664.7,222.0 L660.7,226.5 L659.8,231.8 L653.2,237.6 L660.1,247.7 L658.0,253.5 L663.1,258.3 L666.8,255.0 L672.2,255.7 L676.4,259.2 L673.0,264.5 L672.2,268.0 L669.9,267.8 L663.3,272.1 L659.5,273.0 L654.3,277.6 L644.6,274.9 L643.3,279.3 L633.1,280.3 L629.3,286.6 L629.1,289.4 L632.8,295.4 L631.8,299.8 L634.3,304.3 L633.9,307.9 L626.3,312.1 L622.8,318.4 L619.8,320.6 L620.7,322.7 L654.6,359.0 L658.6,360.6 L662.2,369.6 L661.5,374.6 L658.0,379.0 L653.7,382.3 L646.4,385.3 L644.1,391.9 L640.8,394.8 L633.5,396.3 L625.9,394.7 L626.1,398.7 L624.0,399.9 L617.5,400.3 L614.5,402.6 L614.2,406.6 L611.9,409.2 L603.9,409.0 L598.1,413.1 L592.9,414.7 L587.5,414.1 L583.5,417.0 L579.2,417.5 L569.2,413.5 L565.1,413.5 L561.2,416.1 L560.0,420.6 L554.3,420.4 L549.3,421.6 L548.2,427.9 L550.3,433.9 L550.3,440.3 L547.9,443.6 L540.9,445.4 L537.4,443.6 L530.4,435.2 L527.1,432.9 L522.2,427.0 L514.9,424.6 L512.7,429.8 L510.5,430.5 L504.7,426.4 L498.2,426.7 L491.5,425.7 L485.2,429.3 L481.7,427.7 L478.4,418.6 L472.4,415.8 L465.9,415.4 L454.2,417.1 L451.2,412.5 L452.1,408.4 L450.4,395.2 L448.2,392.9 L435.8,391.0 L428.3,382.0 L423.1,371.7 L421.0,364.2 L417.6,358.8 L419.2,356.8 L425.5,355.5 L425.9,351.7 L423.4,349.8 L425.6,345.1 L419.3,339.1 L418.9,336.3 L420.7,332.4 L418.6,331.6 L407.9,332.0 L404.4,335.6 L400.8,334.8 L399.2,327.6 L402.2,315.8 L399.4,312.4 L391.6,313.0 L389.4,314.4 L380.8,330.7 L374.4,331.3 L369.1,334.1 L366.3,331.5 L365.1,326.3 L362.6,324.2 L352.8,333.0 L344.5,335.9 L338.2,336.1 L329.9,339.9 L326.9,339.4 L324.7,335.2 L318.4,335.2 L318.2,331.7 L321.0,325.0 L321.2,321.7 L318.8,314.7 L313.7,314.4 L311.5,312.9 L308.1,314.0 L305.0,310.4 L305.3,310.2 L311.9,306.3 L314.3,301.4 Z">
      <namespace:desc>
        <namespace:labelrank>6</namespace:labelrank>
        <namespace:hasc>VE.BO</namespace:hasc>
        <namespace:alt-name>NULL</namespace:alt-name>
        <namespace:woe-id>2347682</namespace:woe-id>
        <namespace:subregion>NULL</namespace:subregion>
        <namespace:fips>VE06</namespace:fips>
        <namespace:postal-code>BO</namespace:postal-code>
        <namespace:name>Bolívar</namespace:name>
        <namespace:country>Venezuela</namespace:country>
        <namespace:type-en>State</namespace:type-en>
        <namespace:region>NULL</namespace:region>
        <namespace:longitude>-63.8628</namespace:longitude>
        <namespace:woe-name>Bolívar</namespace:woe-name>
        <namespace:latitude>6.00608</namespace:latitude>
        <namespace:woe-label>Bolivar, VE, Venezuela</namespace:woe-label>
        <namespace:type>Estado</namespace:type>
        <namespace:hc-middle-x>0.56</namespace:hc-middle-x>
        <namespace:hc-middle-y>0.48</namespace:hc-middle-y>
        <namespace:hc-key>ve-bo</namespace:hc-key>
        <namespace:hc-a2>BO</namespace:hc-a2>
      </namespace:desc>
    </path>
  </g>
  <path
     style="fill:none;fill-rule:evenodd;stroke:#000000;stroke-width:1px;stroke-linecap:butt;stroke-linejoin:miter;stroke-opacity:1"
     d="m 321.81224,296.26231 -7.70121,4.58796 -2.78555,5.40723 -6.55422,4.09639 3.27711,3.44096 3.27711,-0.98313 2.45784,1.4747 4.75181,0.49156 2.29397,6.06266 0,3.93253 -2.78554,7.04579 0,2.78554 6.71808,0.81928 1.96626,3.60482 3.11326,0.81928 8.02892,-3.44097 6.39036,-0.32771 8.19278,-3.11325 10.15904,-8.52049 2.13012,1.63856 1.31085,5.07952 3.11325,3.11325 5.24338,-2.78554 6.22651,-0.98314 8.68434,-15.89398 2.29398,-1.63856 7.86506,-0.65542 -50.13979,-61.28196 -10.81446,3.93253 -6.39037,4.91567 -3.44096,0.49156 -4.91567,4.75181 2.62169,7.20965 -0.98313,3.60482 0.49156,4.75181 -2.78554,3.76867 -2.45783,8.52049 z"
     id="path3388"
     inkscape:connector-curvature="0" />
</svg>
